<svg id="Capa_1" enable-background="new 0 0 512 512" height="512" viewBox="0 0 512 512" width="512" xmlns="http://www.w3.org/2000/svg"><g><g><g><path d="m256 497.175c-64.42 0-124.985-25.087-170.537-70.639s-70.638-106.116-70.638-170.536 25.086-124.984 70.638-170.537c45.552-45.552 106.117-70.638 170.537-70.638s124.985 25.087 170.537 70.638c45.551 45.553 70.638 106.117 70.638 170.537s-25.087 124.984-70.638 170.537c-45.552 45.552-106.117 70.638-170.537 70.638z" fill="#fef1ac"/><path d="m426.537 85.463c-45.552-45.552-106.117-70.638-170.537-70.638v482.351c64.42 0 124.985-25.087 170.537-70.639 45.551-45.553 70.638-106.117 70.638-170.537s-25.087-124.984-70.638-170.537z" fill="#fee17f"/></g><path d="m256 512c-68.38 0-132.668-26.629-181.02-74.98-48.351-48.353-74.98-112.64-74.98-181.02s26.629-132.667 74.98-181.02c48.352-48.351 112.64-74.98 181.02-74.98s132.667 26.629 181.019 74.98c48.352 48.353 74.981 112.64 74.981 181.02s-26.629 132.667-74.981 181.02c-48.352 48.351-112.639 74.98-181.019 74.98zm0-482c-60.367 0-117.12 23.508-159.806 66.194s-66.194 99.439-66.194 159.806 23.508 117.12 66.194 159.806 99.439 66.194 159.806 66.194 117.12-23.508 159.806-66.194 66.194-99.439 66.194-159.806-23.508-117.12-66.194-159.806-99.439-66.194-159.806-66.194z" fill="#fecb69"/><path d="m437.019 74.98c-48.352-48.351-112.639-74.98-181.019-74.98v30c60.367 0 117.12 23.508 159.806 66.194s66.194 99.439 66.194 159.806-23.508 117.12-66.194 159.806-99.439 66.194-159.806 66.194v30c68.38 0 132.667-26.629 181.019-74.98 48.352-48.353 74.981-112.64 74.981-181.02s-26.629-132.667-74.981-181.02z" fill="#fdba3e"/></g><g><path d="m240.998 312.089c0-7.072-8.55-10.614-13.551-5.613l-61.277 61.276c-10.372 10.372-14.706 24.597-11.892 39.025 2.77 14.197 11.947 25.55 25.179 31.146.603.256 1.198.504 1.795.749 13.605 5.596 28.408 4.114 40.612-4.061 12.133-8.129 19.101-21.16 19.136-35.762 0-.036-.002-.072-.002-.108z" fill="#fecb69"/><path d="m221.863 77.39c-7.327-4.908-15.59-7.404-23.968-7.404-5.578 0-11.206 1.106-16.644 3.343-.598.245-1.193.493-1.787.745-13.24 5.6-22.417 16.952-25.187 31.15-2.814 14.429 1.52 28.653 11.893 39.025l61.277 61.276c5.001 5.001 13.551 1.459 13.551-5.613v-86.652c0-.036.001-.072.002-.108-.035-14.602-7.004-27.633-19.137-35.762z" fill="#fee17f"/><path d="m114.448 271.003c-.043 0-.086-.002-.129-.002-14.594.041-27.615 7.008-35.741 19.136-8.177 12.204-9.658 27.007-4.063 40.611.249.605.499 1.203.751 1.801 5.595 13.228 16.948 22.405 31.146 25.174 14.424 2.813 28.651-1.521 39.023-11.893l61.276-61.276c5.001-5.001 1.459-13.551-5.613-13.551z" fill="#fee17f"/><path d="m114.319 240.999c.043 0 .086-.002.129-.002h86.65c7.072 0 10.614-8.55 5.613-13.551l-61.276-61.276c-8.298-8.298-19.063-12.732-30.424-12.732-2.839 0-5.715.277-8.6.84-14.198 2.769-25.551 11.946-31.147 25.179-.25.593-.5 1.191-.747 1.792-5.597 13.608-4.116 28.411 4.061 40.615 8.125 12.127 21.147 19.094 35.741 19.135z" fill="#fecb69"/><path d="m271.002 199.911c0 7.072 8.55 10.614 13.551 5.613l61.277-61.276c10.372-10.372 14.706-24.597 11.892-39.025-2.77-14.197-11.947-25.55-25.179-31.146-.603-.256-1.198-.504-1.795-.749-5.438-2.236-11.067-3.343-16.645-3.343-8.378 0-16.641 2.496-23.968 7.404-12.133 8.129-19.102 21.16-19.136 35.762 0 .036.002.072.002.108v86.652z" fill="#fecb69"/><path d="m284.553 306.476c-5.001-5.001-13.551-1.459-13.551 5.613v86.651c0 .036-.001.072-.002.108.034 14.602 7.003 27.633 19.136 35.762 12.205 8.177 27.007 9.658 40.612 4.061.598-.245 1.193-.493 1.787-.745 13.24-5.6 22.418-16.952 25.187-31.149 2.814-14.429-1.52-28.653-11.893-39.025z" fill="#fdba3e"/><path d="m436.733 179.451c-5.595-13.228-16.948-22.405-31.146-25.174-14.426-2.815-28.652 1.52-39.023 11.893l-61.276 61.276c-5.001 5.001-1.459 13.551 5.613 13.551h86.65c.043 0 .086.002.129.002 14.594-.041 27.615-7.008 35.741-19.136 8.177-12.204 9.658-27.007 4.063-40.611-.248-.604-.498-1.203-.751-1.801z" fill="#fdba3e"/><path d="m397.681 271.001c-.043 0-.086.002-.129.002h-86.651c-7.072 0-10.614 8.55-5.613 13.551l61.276 61.276c10.372 10.372 24.597 14.706 39.024 11.893 14.198-2.769 25.551-11.946 31.147-25.179.25-.593.5-1.191.747-1.792 5.597-13.608 4.116-28.411-4.061-40.615-8.124-12.128-21.146-19.095-35.74-19.136z" fill="#fecb69"/></g></g></svg>