<?xml version="1.0" encoding="UTF-8" standalone="no"?>
<!DOCTYPE svg PUBLIC "-//W3C//DTD SVG 1.1//EN" "http://www.w3.org/Graphics/SVG/1.1/DTD/svg11.dtd">
<svg version="1.1" xmlns="http://www.w3.org/2000/svg" xmlns:xlink="http://www.w3.org/1999/xlink" preserveAspectRatio="xMidYMid meet" viewBox="-1.0000000000000142 -1.0000000000000426 516 516" width="512" height="512"><defs><path d="M74.98 437.02C26.63 388.67 0 324.38 0 256C0 187.62 26.63 123.33 74.98 74.98C123.33 26.63 187.62 0 256 0C324.38 0 388.67 26.63 437.02 74.98C485.37 123.33 512 187.62 512 256C512 324.38 485.37 388.67 437.02 437.02C388.67 485.37 324.38 512 256 512C187.62 512 123.33 485.37 74.98 437.02ZM96.19 96.19C53.51 138.88 30 195.63 30 256C30 316.37 53.51 373.12 96.19 415.81C138.88 458.49 195.63 482 256 482C316.37 482 373.12 458.49 415.81 415.81C458.49 373.12 482 316.37 482 256C482 195.63 458.49 138.88 415.81 96.19C373.12 53.51 316.37 30 256 30C195.63 30 138.88 53.51 96.19 96.19Z" id="b1mqxz0gaQ"></path><path d="M256 0C256 3 256 27 256 30C316.37 30 373.12 53.51 415.81 96.19C458.49 138.88 482 195.63 482 256C482 316.37 458.49 373.12 415.81 415.81C373.12 458.49 316.37 482 256 482C256 485 256 509 256 512C324.38 512 388.67 485.37 437.02 437.02C485.37 388.67 512 324.38 512 256C512 187.62 485.37 123.33 437.02 74.98C388.67 26.63 324.38 0 256 0Z" id="a327qI9j7S"></path><path d="M241 312.09C241 305.02 232.45 301.48 227.45 306.48C221.32 312.6 172.3 361.62 166.17 367.75C155.8 378.12 151.46 392.35 154.28 406.78C157.05 420.97 166.23 432.33 179.46 437.92C180.06 438.18 180.66 438.43 181.25 438.67C194.86 444.27 209.66 442.79 221.86 434.61C234 426.48 240.97 413.45 241 398.85C241 398.81 241 398.78 241 398.74C241 381.41 241 329.42 241 312.09Z" id="h2zYmd5tEL"></path><path d="M114.45 271C114.4 271 114.36 271 114.32 271C99.73 271.04 86.7 278.01 78.58 290.14C70.4 302.34 68.92 317.14 74.51 330.75C74.76 331.35 75.01 331.95 75.27 332.55C80.86 345.78 92.21 354.95 106.41 357.72C120.84 360.54 135.06 356.2 145.44 345.83C151.56 339.7 200.58 290.68 206.71 284.55C211.71 279.55 208.17 271 201.1 271C183.77 271 131.78 271 114.45 271Z" id="alD9vK22c"></path><path d="M284.55 306.48C279.55 301.48 271 305.02 271 312.09C271 320.75 271 390.07 271 398.74C271 398.78 271 398.81 271 398.85C271.03 413.45 278 426.48 290.14 434.61C302.34 442.79 317.14 444.27 330.75 438.67C331.35 438.43 331.94 438.18 332.54 437.93C345.78 432.33 354.95 420.97 357.72 406.78C360.54 392.35 356.2 378.12 345.83 367.75C333.57 355.5 296.81 318.73 284.55 306.48Z" id="cEyTQwIyW"></path><path d="M397.55 271C388.89 271 319.57 271 310.9 271C303.83 271 300.29 279.55 305.29 284.55C311.42 290.68 360.44 339.7 366.56 345.83C376.94 356.2 391.16 360.54 405.59 357.72C419.79 354.95 431.14 345.78 436.73 332.54C436.98 331.95 437.23 331.35 437.48 330.75C443.08 317.14 441.6 302.34 433.42 290.14C425.3 278.01 412.28 271.04 397.68 271C397.64 271 397.6 271 397.55 271Z" id="aL1jpRrO1"></path></defs><g><g><use xlink:href="#b1mqxz0gaQ" opacity="1" fill="#fecb69" fill-opacity="1"></use><g><use xlink:href="#b1mqxz0gaQ" opacity="1" fill-opacity="0" stroke="#000000" stroke-width="1" stroke-opacity="0"></use></g></g><g><use xlink:href="#a327qI9j7S" opacity="1" fill="#fdba3e" fill-opacity="1"></use><g><use xlink:href="#a327qI9j7S" opacity="1" fill-opacity="0" stroke="#000000" stroke-width="1" stroke-opacity="0"></use></g></g><g><use xlink:href="#h2zYmd5tEL" opacity="1" fill="#fecb69" fill-opacity="1"></use><g><use xlink:href="#h2zYmd5tEL" opacity="1" fill-opacity="0" stroke="#000000" stroke-width="1" stroke-opacity="0"></use></g></g><g><use xlink:href="#alD9vK22c" opacity="1" fill="#fee17f" fill-opacity="1"></use><g><use xlink:href="#alD9vK22c" opacity="1" fill-opacity="0" stroke="#000000" stroke-width="1" stroke-opacity="0"></use></g></g><g><use xlink:href="#cEyTQwIyW" opacity="1" fill="#fdba3e" fill-opacity="1"></use><g><use xlink:href="#cEyTQwIyW" opacity="1" fill-opacity="0" stroke="#000000" stroke-width="1" stroke-opacity="0"></use></g></g><g><use xlink:href="#aL1jpRrO1" opacity="1" fill="#fecb69" fill-opacity="1"></use><g><use xlink:href="#aL1jpRrO1" opacity="1" fill-opacity="0" stroke="#000000" stroke-width="1" stroke-opacity="0"></use></g></g></g></svg>